<?xml version="1.0" encoding="UTF-8"?>
<svg id="Layer_1" data-name="Layer 1" xmlns="http://www.w3.org/2000/svg" viewBox="0 0 2000 2000">
  <defs>
    <style>
      .cls-1, .cls-2, .cls-3, .cls-4, .cls-5, .cls-6, .cls-7, .cls-8, .cls-9 {
        font-family: RethinkSans-Regular, 'Rethink Sans';
        font-variation-settings: 'wght' 400;
      }

      .cls-1, .cls-2, .cls-10, .cls-4, .cls-11, .cls-12 {
        fill: #fff;
      }

      .cls-1, .cls-8, .cls-13, .cls-12 {
        font-size: 59.74px;
      }

      .cls-14 {
        letter-spacing: -.04em;
      }

      .cls-15, .cls-16, .cls-17, .cls-10, .cls-11, .cls-18, .cls-19, .cls-13, .cls-12 {
        font-family: RethinkSans-ExtraBold, 'Rethink Sans';
        font-variation-settings: 'wght' 800;
        font-weight: 700;
      }

      .cls-15, .cls-16, .cls-3, .cls-6, .cls-19, .cls-9 {
        font-size: 72.77px;
      }

      .cls-2, .cls-17, .cls-10, .cls-5 {
        font-size: 71.85px;
      }

      .cls-16, .cls-3, .cls-20 {
        fill: #5b0070;
      }

      .cls-21 {
        letter-spacing: -.02em;
      }

      .cls-22, .cls-23, .cls-8, .cls-13 {
        stroke: #000;
        stroke-miterlimit: 10;
        stroke-width: 2px;
      }

      .cls-24, .cls-19, .cls-9 {
        fill: #ffda72;
      }

      .cls-23 {
        fill: none;
      }

      .cls-25 {
        letter-spacing: -.01em;
      }

      .cls-4, .cls-11, .cls-18, .cls-7 {
        font-size: 51.11px;
      }

      .cls-26 {
        letter-spacing: -.04em;
      }

      .cls-27 {
        letter-spacing: 0em;
      }

      .cls-28 {
        letter-spacing: 0em;
      }

      .cls-29 {
        letter-spacing: -.02em;
      }

      .cls-30 {
        letter-spacing: -.04em;
      }

      .cls-31 {
        letter-spacing: -.02em;
      }

      .cls-32 {
        letter-spacing: -.05em;
      }

      .cls-33 {
        letter-spacing: -.02em;
      }

      .cls-34 {
        letter-spacing: 0em;
      }
    </style>
  </defs>
  <rect class="cls-23" x="70.76" y="70.28" width="572.51" height="572.51"/>
  <rect class="cls-23" x="713.74" y="70.28" width="572.51" height="572.51"/>
  <rect class="cls-23" x="1356.73" y="70.28" width="572.51" height="572.51"/>
  <rect class="cls-22" x="70.76" y="724.08" width="572.51" height="572.51"/>
  <rect class="cls-22" x="713.74" y="724.08" width="572.51" height="572.51"/>
  <rect class="cls-22" x="1356.73" y="724.08" width="572.51" height="572.51"/>
  <rect class="cls-24" x="70.76" y="1377.88" width="572.51" height="572.51"/>
  <rect class="cls-20" x="713.74" y="1377.88" width="572.51" height="572.51"/>
  <rect class="cls-23" x="1356.73" y="1377.88" width="572.51" height="572.51"/>
  <g>
    <text class="cls-9" transform="translate(1642.98 1501.07)"><tspan x="0" y="0">OPTIK</tspan><tspan class="cls-28" x="199.18" y="0">A</tspan></text>
    <text class="cls-19" transform="translate(1388.41 1500.2)"><tspan x="0" y="0">VI</tspan><tspan class="cls-31" x="68.41" y="0">S</tspan><tspan class="cls-30" x="109.09" y="0">A</tspan><tspan x="156.17" y="0">GE</tspan></text>
  </g>
  <g>
    <text class="cls-6" transform="translate(1642.98 1700.87)"><tspan x="0" y="0">OPTIK</tspan><tspan class="cls-28" x="199.18" y="0">A</tspan></text>
    <text class="cls-15" transform="translate(1388.41 1700)"><tspan x="0" y="0">VI</tspan><tspan class="cls-31" x="68.41" y="0">S</tspan><tspan class="cls-30" x="109.09" y="0">A</tspan><tspan x="156.17" y="0">GE</tspan></text>
  </g>
  <g>
    <text class="cls-3" transform="translate(1642.98 1900.67)"><tspan x="0" y="0">OPTIK</tspan><tspan class="cls-28" x="199.18" y="0">A</tspan></text>
    <text class="cls-16" transform="translate(1388.41 1899.8)"><tspan x="0" y="0">VI</tspan><tspan class="cls-31" x="68.41" y="0">S</tspan><tspan class="cls-30" x="109.09" y="0">A</tspan><tspan x="156.17" y="0">GE</tspan></text>
  </g>
  <g>
    <g>
      <text class="cls-1" transform="translate(996.95 1700.43)"><tspan x="0" y="0">OPTIK</tspan><tspan class="cls-25" x="163.51" y="0">A</tspan></text>
      <text class="cls-12" transform="translate(787.96 1699.72)"><tspan x="0" y="0">VI</tspan><tspan class="cls-29" x="56.16" y="0">S</tspan><tspan class="cls-26" x="89.55" y="0">A</tspan><tspan x="128.21" y="0">GE</tspan></text>
    </g>
    <g>
      <path class="cls-24" d="M993.99,1579.03c11.23-1.95,22.56.26,32.3,6.23l4.47-6.57c-11.45-7.18-24.85-9.87-38.14-7.56-14.58,2.54-27.25,10.76-35.68,23.16l-18.33,26.95c-1.2,1.77-.78,4.17.94,5.43h0c1.81,1.31,4.34.87,5.6-.97l18.19-26.74c7.26-10.67,18.14-17.75,30.65-19.92Z"/>
      <path class="cls-24" d="M991.01,1562.99c15.35-2.67,30.81.5,43.99,8.92l4.47-6.57c-14.9-9.66-32.44-13.3-49.83-10.27-18.68,3.25-34.93,13.79-45.73,29.68l-18.33,26.95c-1.2,1.77-.78,4.17.94,5.43h0c1.81,1.32,4.34.87,5.6-.97l18.19-26.74c9.62-14.15,24.08-23.53,40.71-26.42Z"/>
      <path class="cls-24" d="M1000.47,1589.49c-1.79.16-3.57.44-5.35.86-10.34,2.4-19.1,8.81-24.66,18.06l-.31.51c18.18,9.38,40.55,3.28,51.35-14.66l.31-.51c-1.63-.85-3.31-1.57-5.01-2.17-6.76,8.94-19.47,12.14-29.66,7.62l.19-.27c3.1-4.51,7.73-7.81,13.14-9.42Z"/>
      <path class="cls-24" d="M1060.58,1573.93c-1.77-1.29-4.2-.86-5.43.94l-20.49,30.12c-16.69,24.54-49.09,31.09-73.82,15.6l-4.47,6.56c13.59,8.68,29.25,11.49,43.99,8.92,15.92-2.77,30.76-11.8,40.71-26.42l20.49-30.12c1.23-1.81.79-4.32-.97-5.6Z"/>
    </g>
  </g>
  <g>
    <g>
      <text class="cls-8" transform="translate(360.44 1700.43)"><tspan x="0" y="0">OPTIK</tspan><tspan class="cls-25" x="163.51" y="0">A</tspan></text>
      <text class="cls-13" transform="translate(151.46 1699.72)"><tspan x="0" y="0">VI</tspan><tspan class="cls-29" x="56.16" y="0">S</tspan><tspan class="cls-26" x="89.55" y="0">A</tspan><tspan x="128.21" y="0">GE</tspan></text>
    </g>
    <g>
      <path class="cls-20" d="M357.49,1579.03c11.23-1.95,22.56.26,32.3,6.23l4.47-6.57c-11.45-7.18-24.85-9.87-38.14-7.56-14.58,2.54-27.25,10.76-35.68,23.16l-18.33,26.95c-1.2,1.77-.78,4.17.94,5.43h0c1.81,1.31,4.34.87,5.6-.97l18.19-26.74c7.26-10.67,18.14-17.75,30.65-19.92Z"/>
      <path class="cls-20" d="M354.5,1562.99c15.35-2.67,30.81.5,43.99,8.92l4.47-6.57c-14.9-9.66-32.44-13.3-49.83-10.27-18.68,3.25-34.93,13.79-45.73,29.68l-18.33,26.95c-1.2,1.77-.78,4.17.94,5.43h0c1.81,1.32,4.34.87,5.6-.97l18.19-26.74c9.62-14.15,24.08-23.53,40.71-26.42Z"/>
      <path class="cls-20" d="M363.97,1589.49c-1.79.16-3.57.44-5.35.86-10.34,2.4-19.1,8.81-24.66,18.06l-.31.51c18.18,9.38,40.55,3.28,51.35-14.66l.31-.51c-1.63-.85-3.31-1.57-5.01-2.17-6.76,8.94-19.47,12.14-29.66,7.62l.19-.27c3.1-4.51,7.73-7.81,13.14-9.42Z"/>
      <path class="cls-20" d="M424.08,1573.93c-1.77-1.29-4.2-.86-5.43.94l-20.49,30.12c-16.69,24.54-49.09,31.09-73.82,15.6l-4.47,6.56c13.59,8.68,29.25,11.49,43.99,8.92,15.92-2.77,30.76-11.8,40.71-26.42l20.49-30.12c1.23-1.81.79-4.32-.97-5.6Z"/>
    </g>
  </g>
  <g>
    <path class="cls-20" d="M1643.64,331.63c17.37-3.02,34.89.41,49.96,9.63l6.91-10.15c-17.71-11.11-38.43-15.27-58.99-11.69-22.55,3.92-42.15,16.64-55.19,35.82l-28.35,41.68c-1.86,2.73-1.21,6.45,1.46,8.39h0c2.8,2.03,6.72,1.35,8.66-1.51l28.13-41.36c11.22-16.5,28.06-27.45,47.41-30.81Z"/>
    <path class="cls-20" d="M1639.03,306.82c23.73-4.13,47.66.78,68.03,13.8l6.91-10.16c-23.04-14.94-50.17-20.57-77.07-15.89-28.9,5.03-54.02,21.33-70.73,45.91l-28.35,41.69c-1.86,2.73-1.21,6.45,1.46,8.39h0c2.8,2.04,6.72,1.35,8.66-1.51l28.13-41.36c14.88-21.88,37.24-36.39,62.96-40.87Z"/>
    <path class="cls-20" d="M1653.67,347.81c-2.76.25-5.53.69-8.28,1.32-16,3.71-29.54,13.63-38.14,27.93l-.48.79c28.12,14.51,62.72,5.08,79.42-22.68l.48-.8c-2.53-1.31-5.12-2.43-7.76-3.36-10.45,13.83-30.11,18.77-45.87,11.79l.29-.42c4.79-6.97,11.95-12.07,20.33-14.57Z"/>
    <path class="cls-20" d="M1746.63,323.75c-2.74-1.99-6.49-1.34-8.4,1.46l-31.69,46.59c-25.82,37.96-75.93,48.08-114.18,24.12l-6.91,10.15c21.02,13.42,45.24,17.76,68.03,13.8,24.63-4.28,47.58-18.25,62.96-40.87l31.69-46.59c1.9-2.8,1.23-6.68-1.51-8.67Z"/>
  </g>
  <g>
    <g>
      <text class="cls-5" transform="translate(359.59 417.03)"><tspan x="0" y="0">OPTIK</tspan><tspan class="cls-27" x="196.64" y="0">A</tspan></text>
      <text class="cls-17" transform="translate(108.26 416.17)"><tspan x="0" y="0">VI</tspan><tspan class="cls-21" x="67.54" y="0">S</tspan><tspan class="cls-14" x="107.7" y="0">A</tspan><tspan x="154.18" y="0">GE</tspan></text>
    </g>
    <g>
      <path class="cls-20" d="M356.04,271.03c13.5-2.35,27.13.32,38.85,7.49l5.37-7.9c-13.77-8.64-29.88-11.87-45.87-9.09-17.53,3.05-32.77,12.94-42.91,27.85l-22.05,32.41c-1.45,2.13-.94,5.01,1.14,6.53h0c2.17,1.58,5.22,1.05,6.74-1.17l21.88-32.16c8.73-12.83,21.82-21.34,36.86-23.96Z"/>
      <path class="cls-20" d="M352.45,251.73c18.45-3.21,37.06.61,52.9,10.73l5.37-7.9c-17.92-11.62-39.01-15.99-59.93-12.35-22.47,3.91-42,16.59-55,35.7l-22.04,32.41c-1.44,2.12-.94,5.01,1.13,6.52h0c2.17,1.58,5.23,1.05,6.74-1.17l21.88-32.16c11.57-17.01,28.95-28.3,48.95-31.78Z"/>
      <path class="cls-20" d="M363.83,283.61c-2.15.19-4.3.53-6.44,1.03-12.44,2.88-22.97,10.6-29.66,21.71l-.37.62c21.87,11.29,48.77,3.95,61.75-17.64l.37-.62c-1.96-1.02-3.98-1.89-6.03-2.61-8.13,10.76-23.41,14.6-35.67,9.17l.23-.33c3.73-5.42,9.29-9.39,15.81-11.33Z"/>
      <path class="cls-20" d="M436.12,264.9c-2.13-1.55-5.05-1.04-6.53,1.14l-24.64,36.23c-20.07,29.52-59.04,37.39-88.78,18.76l-5.37,7.89c16.34,10.44,35.18,13.81,52.9,10.73,19.15-3.33,36.99-14.19,48.95-31.78l24.64-36.22c1.48-2.18.95-5.19-1.17-6.74Z"/>
    </g>
  </g>
  <g>
    <g>
      <text class="cls-7" transform="translate(1068.71 391.63)"><tspan x="0" y="0">OPTIK</tspan><tspan class="cls-34" x="139.89" y="0">A</tspan></text>
      <text class="cls-18" transform="translate(889.92 391.02)"><tspan x="0" y="0">VI</tspan><tspan class="cls-33" x="48.04" y="0">S</tspan><tspan class="cls-32" x="76.62" y="0">A</tspan><tspan x="109.68" y="0">GE</tspan></text>
    </g>
    <g>
      <path class="cls-20" d="M808.35,359.12c9.61-1.67,19.3.23,27.64,5.33l3.82-5.62c-9.8-6.14-21.26-8.45-32.63-6.47-12.47,2.17-23.31,9.21-30.53,19.81l-15.68,23.06c-1.03,1.51-.67,3.57.81,4.64h0c1.55,1.12,3.72.75,4.79-.83l15.56-22.88c6.21-9.13,15.52-15.18,26.22-17.04Z"/>
      <path class="cls-20" d="M805.8,345.4c13.13-2.28,26.36.43,37.63,7.63l3.82-5.62c-12.75-8.26-27.75-11.38-42.63-8.79-15.99,2.78-29.88,11.8-39.13,25.39l-15.68,23.06c-1.03,1.51-.67,3.57.81,4.64h0c1.55,1.13,3.72.75,4.79-.83l15.56-22.88c8.23-12.1,20.6-20.13,34.83-22.61Z"/>
      <path class="cls-20" d="M813.9,368.07c-1.53.14-3.06.38-4.58.73-8.85,2.05-16.34,7.54-21.1,15.45l-.26.44c15.56,8.03,34.69,2.81,43.93-12.55l.27-.44c-1.4-.72-2.83-1.34-4.29-1.86-5.78,7.65-16.66,10.39-25.37,6.52l.16-.23c2.65-3.86,6.61-6.68,11.25-8.06Z"/>
      <path class="cls-20" d="M865.32,354.76c-1.51-1.1-3.59-.74-4.64.81l-17.53,25.77c-14.28,21-42,26.6-63.16,13.34l-3.82,5.62c11.63,7.43,25.02,9.83,37.63,7.63,13.62-2.37,26.32-10.1,34.83-22.61l17.53-25.77c1.05-1.55.68-3.69-.83-4.79Z"/>
    </g>
  </g>
  <g>
    <path class="cls-24" d="M1643.64,968.65c17.37-3.02,34.89.41,49.96,9.63l6.91-10.15c-17.71-11.11-38.43-15.27-58.99-11.69-22.55,3.92-42.15,16.64-55.19,35.82l-28.35,41.68c-1.86,2.73-1.21,6.45,1.46,8.39h0c2.8,2.03,6.72,1.35,8.66-1.51l28.13-41.36c11.22-16.5,28.06-27.45,47.41-30.81Z"/>
    <path class="cls-24" d="M1639.03,943.84c23.73-4.13,47.66.78,68.03,13.8l6.91-10.16c-23.04-14.94-50.17-20.57-77.07-15.89-28.9,5.03-54.02,21.33-70.73,45.91l-28.35,41.69c-1.86,2.73-1.21,6.45,1.46,8.39h0c2.8,2.04,6.72,1.35,8.66-1.51l28.13-41.36c14.88-21.88,37.24-36.39,62.96-40.87Z"/>
    <path class="cls-24" d="M1653.67,984.83c-2.76.25-5.53.69-8.28,1.32-16,3.71-29.54,13.63-38.14,27.93l-.48.79c28.12,14.51,62.72,5.08,79.42-22.68l.48-.8c-2.53-1.31-5.12-2.43-7.76-3.36-10.45,13.83-30.11,18.77-45.87,11.79l.29-.42c4.79-6.97,11.95-12.07,20.33-14.57Z"/>
    <path class="cls-24" d="M1746.63,960.77c-2.74-1.99-6.49-1.34-8.4,1.46l-31.69,46.59c-25.82,37.96-75.93,48.08-114.18,24.12l-6.91,10.15c21.02,13.42,45.24,17.76,68.03,13.8,24.63-4.28,47.58-18.25,62.96-40.87l31.69-46.59c1.9-2.8,1.23-6.68-1.51-8.67Z"/>
  </g>
  <g>
    <text class="cls-4" transform="translate(1068.71 1028.65)"><tspan x="0" y="0">OPTIK</tspan><tspan class="cls-34" x="139.89" y="0">A</tspan></text>
    <text class="cls-11" transform="translate(889.92 1028.04)"><tspan x="0" y="0">VI</tspan><tspan class="cls-33" x="48.04" y="0">S</tspan><tspan class="cls-32" x="76.62" y="0">A</tspan><tspan x="109.68" y="0">GE</tspan></text>
  </g>
  <g>
    <g>
      <text class="cls-2" transform="translate(359.59 1054.05)"><tspan x="0" y="0">OPTIK</tspan><tspan class="cls-27" x="196.64" y="0">A</tspan></text>
      <text class="cls-10" transform="translate(108.26 1053.19)"><tspan x="0" y="0">VI</tspan><tspan class="cls-21" x="67.54" y="0">S</tspan><tspan class="cls-14" x="107.7" y="0">A</tspan><tspan x="154.18" y="0">GE</tspan></text>
    </g>
    <g>
      <path class="cls-24" d="M356.04,908.05c13.5-2.35,27.13.32,38.85,7.49l5.37-7.9c-13.77-8.64-29.88-11.87-45.87-9.09-17.53,3.05-32.77,12.94-42.91,27.85l-22.05,32.41c-1.45,2.13-.94,5.01,1.14,6.53h0c2.17,1.58,5.22,1.05,6.74-1.17l21.88-32.16c8.73-12.83,21.82-21.34,36.86-23.96Z"/>
      <path class="cls-24" d="M352.45,888.75c18.45-3.21,37.06.61,52.9,10.73l5.37-7.9c-17.92-11.62-39.01-15.99-59.93-12.35-22.47,3.91-42,16.59-55,35.7l-22.04,32.41c-1.44,2.12-.94,5.01,1.13,6.52h0c2.17,1.58,5.23,1.05,6.74-1.17l21.88-32.16c11.57-17.01,28.95-28.3,48.95-31.78Z"/>
      <path class="cls-24" d="M363.83,920.63c-2.15.19-4.3.53-6.44,1.03-12.44,2.88-22.97,10.6-29.66,21.71l-.37.62c21.87,11.29,48.77,3.95,61.75-17.64l.37-.62c-1.96-1.02-3.98-1.89-6.03-2.61-8.13,10.76-23.41,14.6-35.67,9.17l.23-.33c3.73-5.42,9.29-9.39,15.81-11.33Z"/>
      <path class="cls-24" d="M436.12,901.92c-2.13-1.55-5.05-1.04-6.53,1.14l-24.64,36.23c-20.07,29.52-59.04,37.39-88.78,18.76l-5.37,7.89c16.34,10.44,35.18,13.81,52.9,10.73,19.15-3.33,36.99-14.19,48.95-31.78l24.64-36.22c1.48-2.18.95-5.19-1.17-6.74Z"/>
    </g>
  </g>
  <g>
    <path class="cls-24" d="M808.35,999.14c9.61-1.67,19.3.23,27.64,5.33l3.82-5.62c-9.8-6.14-21.26-8.45-32.63-6.47-12.47,2.17-23.31,9.21-30.53,19.81l-15.68,23.06c-1.03,1.51-.67,3.57.81,4.64h0c1.55,1.12,3.72.75,4.79-.83l15.56-22.88c6.21-9.13,15.52-15.18,26.22-17.04Z"/>
    <path class="cls-24" d="M805.8,985.41c13.13-2.28,26.36.43,37.63,7.63l3.82-5.62c-12.75-8.26-27.75-11.38-42.63-8.79-15.99,2.78-29.88,11.8-39.13,25.39l-15.68,23.06c-1.03,1.51-.67,3.57.81,4.64h0c1.55,1.13,3.72.75,4.79-.83l15.56-22.88c8.23-12.1,20.6-20.13,34.83-22.61Z"/>
    <path class="cls-24" d="M813.9,1008.09c-1.53.14-3.06.38-4.58.73-8.85,2.05-16.34,7.54-21.1,15.45l-.26.44c15.56,8.03,34.69,2.81,43.93-12.55l.27-.44c-1.4-.72-2.83-1.34-4.29-1.86-5.78,7.65-16.66,10.39-25.37,6.52l.16-.23c2.65-3.86,6.61-6.68,11.25-8.06Z"/>
    <path class="cls-24" d="M865.32,994.78c-1.51-1.1-3.59-.74-4.64.81l-17.53,25.77c-14.28,21-42,26.6-63.16,13.34l-3.82,5.62c11.63,7.43,25.02,9.83,37.63,7.63,13.62-2.37,26.32-10.1,34.83-22.61l17.53-25.77c1.05-1.55.68-3.69-.83-4.79Z"/>
  </g>
</svg>